<?xml version="1.0" encoding="utf-8"?>
<!-- Generator: Adobe Illustrator 27.5.0, SVG Export Plug-In . SVG Version: 6.00 Build 0)  -->
<svg version="1.1" id="Layer_1" xmlns="http://www.w3.org/2000/svg" xmlns:xlink="http://www.w3.org/1999/xlink" x="0px" y="0px"
	 viewBox="0 0 450 450" style="enable-background:new 0 0 450 450;" xml:space="preserve">
<g>
	<rect style="fill:#06092D;" width="450" height="450"/>
	<g style="opacity:0.75;">
		<radialGradient id="SVGID_1_" cx="232.0142" cy="83.3029" r="75.8113" gradientUnits="userSpaceOnUse">
			<stop  offset="0" style="stop-color:#278369"/>
			<stop  offset="0.9892" style="stop-color:#275469"/>
		</radialGradient>
		<path style="fill:url(#SVGID_1_);" d="M148.26,68.464c5.2-25.725,33.599-55.371,75.64-55.407
			c42.776-0.036,70.936,17.261,81.523,56.909c9.916,37.133-1.116,67.878-28.985,83.774c-31.41,17.915-82.008,16.427-109.191-8.385
			C145.076,125.117,144.06,89.24,148.26,68.464z"/>
		<g>
			<g>
				<path style="fill:#55B8C9;" d="M154.561,66.593c-2.719,3.039-6.193,19.242,0,21.232c6.193,1.991,11.184,4.299,12.511,9.607
					c1.327,5.308,6.016,23.486,9.554,29.015c3.539,5.529,12.796,7.671,15.312-0.802c1.638-5.517,1.327-11.943,3.318-15.261
					c1.991-3.318-5.087-11.722,0.885-13.491c5.972-1.769,12.828-4.866,9.068-9.731c-3.76-4.866-8.626-2.875-10.395-8.847
					c-1.769-5.972-3.096-10.616-1.548-10.616s1.106,11.943,7.741,13.049c6.635,1.106,9.914,0.991,12.828-4.866
					c0.631-1.268-8.404-7.962-7.077-9.289c1.327-1.327,4.202,2.875,9.51,3.318c5.308,0.442,10.395,2.433,10.837,6.193
					c0.442,3.76,5.095,12.907,7.52,12.607c6.325-0.784-1.548-9.068,1.99-11.943c3.539-2.875,5.087-4.645,9.289-1.769
					c4.202,2.875,4.423,7.52,4.202,10.616c-0.221,3.096,2.401,10.566,4.834,12.999c2.433,2.433,6.888,7.128,10.869,5.137
					c3.981-1.991-0.442-3.057-3.76-5.288c-3.318-2.232-6.635-11.521-4.202-12.848c2.433-1.327,7.077-1.769,4.202-5.75
					c-2.875-3.981-2.433-5.308-0.221-6.414c2.212-1.106,7.52-3.612,7.077-7.114c-0.443-3.502-4.866-7.925-2.654-9.695
					c2.212-1.769,5.529,3.096,7.962,0c2.433-3.096,1.327-11.28,0-16.809c-1.327-5.529-12.164-5.308-10.616-9.068
					c1.548-3.76,0.221-5.751-5.308-8.183c-5.529-2.433-11.722-2.654-17.03,0c-5.308,2.654-7.077,0.663-11.722,1.99
					c-4.645,1.327-5.087,3.539-7.299,4.645c-2.212,1.106-5.308,1.99-9.952,1.327c-4.645-0.664-7.299-6.414-12.828-1.548
					c-5.529,4.866-2.654,14.376-12.164,13.049c-9.51-1.327-17.472-0.885-17.915,3.539c-0.442,4.423,2.212,8.404-2.654,10.616
					C161.86,58.41,158.321,62.391,154.561,66.593z"/>
				<path style="fill:#55B8C9;" d="M199.237,114.809c1.447-2.952,4.645-7.741,5.751-5.972c1.106,1.769,3.76,11.28,0,12.828
					C201.228,123.213,197.983,117.369,199.237,114.809z"/>
				<path style="fill:#55B8C9;" d="M261.947,121.286c2.987-2.948,5.75-2.654,9.068-6.635c3.317-3.981,4.866-7.741,7.962-6.414
					c3.096,1.327,6.414,4.202,9.731,2.212c3.318-1.991,7.899,0.574,6.793,8.315c-1.106,7.741-4.481,14.616-7.578,18.597
					c-3.096,3.981-10.937,6.042-12.486,2.503c-1.548-3.539-1.106-7.299-3.096-8.847c-1.99-1.548-8.404,2.654-10.395,1.769
					C259.956,131.902,258.892,124.3,261.947,121.286z"/>
				<path style="fill:#55B8C9;" d="M263.819,92.913c0.527-0.776,3.318-6.414,6.193-4.645c2.875,1.769,2.875,9.068,0,10.174
					C267.137,99.548,262.021,95.559,263.819,92.913z"/>
				<path style="fill:#55B8C9;" d="M285.051,98.631c2.496-0.18,9.24,0.916,10.26,5.34c1.02,4.423-0.307,3.981-1.855,2.875
					C291.908,105.741,281.651,98.877,285.051,98.631z"/>
			</g>
		</g>
		<path style="opacity:0.02;fill:#FFFFFF;" d="M263.808,142.479c27.869-15.896,38.901-46.641,28.985-83.774
			c-3.495-13.089-8.917-23.727-16.136-32.124c-13.7-9.241-31.408-13.542-52.757-13.524c-42.041,0.036-70.44,29.683-75.64,55.407
			c-3.85,19.045-3.304,50.77,13.89,71.515C190.388,159.006,235.105,158.85,263.808,142.479z"/>
		<path style="opacity:0.04;fill:#FFFFFF;" d="M251.803,124.669c27.869-15.896,38.901-46.641,28.985-83.774
			c-1.621-6.069-3.673-11.588-6.109-16.623c-13.126-7.618-29.512-11.231-48.956-11.215c-42.041,0.036-70.44,29.683-75.64,55.407
			c-3.015,14.916-3.293,37.594,4.971,56.7C183.358,141.107,224.707,140.124,251.803,124.669z"/>
		<path style="opacity:0.06;fill:#FFFFFF;" d="M148.26,68.464c-2.337,11.563-3.01,27.788,0.648,43.4
			c26.645,8.786,59.293,6.036,81.976-6.902c27.869-15.896,38.901-46.641,28.985-83.774c-0.278-1.04-0.585-2.042-0.888-3.05
			c-10.272-3.408-21.962-5.093-35.08-5.082C181.859,13.093,153.46,42.739,148.26,68.464z"/>
		<path style="opacity:0.14;fill:#FFFFFF;" d="M148.26,68.464c-1.004,4.966-1.668,10.82-1.846,17.088
			c20.863,6.727,46.283,4.535,63.987-5.563c21.91-12.496,30.583-36.668,22.787-65.86c-0.072-0.268-0.154-0.524-0.229-0.787
			c-2.942-0.187-5.957-0.287-9.058-0.285C181.859,13.093,153.46,42.739,148.26,68.464z"/>
		<path style="opacity:0.15;fill:#FFFFFF;" d="M169.45,50.527c-0.099-11.028,24.038-28.076,37.757-27.269
			c22.331,1.314,0.643,26.704-11.641,32.318C183.281,61.19,169.521,58.446,169.45,50.527z"/>
	</g>
	<g>
		<g>
			<g>
				<rect x="77.964" y="164.5" style="fill:#4DDCBE;" width="23.71" height="6.966"/>
				<rect x="77.964" y="164.623" style="fill:#34C0C1;" width="23.71" height="3.36"/>
				<rect x="78.137" y="171.47" style="fill:#C64094;" width="23.36" height="3.377"/>
				<rect x="78.044" y="174.847" style="fill:#FF7B54;" width="23.469" height="3.598"/>
				<rect x="58.51" y="171.535" style="fill:#8C3774;" width="19.655" height="41.149"/>
				<rect x="101.497" y="171.231" style="fill:#FF7B54;" width="19.548" height="41.453"/>
				<rect x="58.51" y="131.024" style="fill:#4DDCBE;" width="19.454" height="40.549"/>
				<rect x="68.31" y="171.535" style="fill:#C64094;" width="9.882" height="41.149"/>
				<rect x="111.271" y="171.231" style="fill:#FFA961;" width="9.655" height="41.453"/>
				<rect x="101.497" y="131.024" style="fill:#4DDCBE;" width="19.548" height="40.549"/>
				<path style="fill:#AF2F84;" d="M78.192,170.83c0,5.435-4.406,9.841-9.841,9.841c-5.435,0-9.841-4.406-9.841-9.841
					c0-5.435,4.406-9.841,9.841-9.841C73.786,160.989,78.192,165.395,78.192,170.83z"/>
				<path style="opacity:0.74;fill:#F2292D;" d="M121.217,170.83c0,5.435-4.406,9.841-9.841,9.841c-5.435,0-9.841-4.406-9.841-9.841
					c0-5.435,4.406-9.841,9.841-9.841C116.811,160.989,121.217,165.395,121.217,170.83z"/>
				<path style="fill:#34C0C1;" d="M68.351,160.989c4.716,0,8.653,3.32,9.613,7.749v-37.713H68.31v29.967
					C68.324,160.991,68.337,160.989,68.351,160.989z"/>
				<path style="fill:#34C0C1;" d="M111.376,160.989c4.627,0,8.498,3.198,9.55,7.501v-37.466h-9.655v29.97
					C111.306,160.994,111.34,160.989,111.376,160.989z"/>
			</g>
			<g>
				<path style="fill:#FFFFFF;" d="M63.665,157.014c-1.059,0-1.919-0.858-1.919-1.918v-19.175c0-1.059,0.859-1.918,1.919-1.918
					c1.059,0,1.918,0.859,1.918,1.918v19.175C65.583,156.156,64.724,157.014,63.665,157.014z"/>
			</g>
			<g>
				<path style="fill:#FFFFFF;" d="M106.188,159.044c-1.059,0-1.919-0.858-1.919-1.918v-6.317c0-1.059,0.859-1.918,1.919-1.918
					s1.919,0.859,1.919,1.918v6.317C108.106,158.186,107.247,159.044,106.188,159.044z"/>
			</g>
			
				<rect x="107.071" y="184.553" transform="matrix(0.7071 -0.7071 0.7071 0.7071 -100.8779 133.9647)" style="opacity:0.74;fill:#F2292D;" width="8.4" height="8.4"/>
			
				<rect x="109.276" y="186.758" transform="matrix(0.7071 -0.7071 0.7071 0.7071 -100.9204 134.0661)" style="fill:#34C0C1;" width="4.2" height="4.2"/>
			
				<rect x="107.071" y="199.131" transform="matrix(0.7071 -0.7071 0.7071 0.7071 -111.1865 138.2347)" style="opacity:0.74;fill:#F2292D;" width="8.4" height="8.4"/>
			
				<rect x="109.276" y="201.231" transform="matrix(0.7071 -0.7071 0.7071 0.7071 -111.1547 138.3051)" style="fill:#34C0C1;" width="4.2" height="4.2"/>
			
				<rect x="64.151" y="184.553" transform="matrix(0.7071 -0.7071 0.7071 0.7071 -113.4487 103.616)" style="fill:#AF2F84;" width="8.4" height="8.4"/>
			
				<rect x="66.356" y="186.758" transform="matrix(0.7071 -0.7071 0.7071 0.7071 -113.4922 103.721)" style="fill:#34C0C1;" width="4.2" height="4.2"/>
			
				<rect x="64.151" y="199.131" transform="matrix(0.7071 -0.7071 0.7071 0.7071 -123.7573 107.886)" style="fill:#AF2F84;" width="8.4" height="8.4"/>
			
				<rect x="66.356" y="201.231" transform="matrix(0.7071 -0.7071 0.7071 0.7071 -123.7266 107.9602)" style="fill:#34C0C1;" width="4.2" height="4.2"/>
			<g>
				<path style="fill:#FFFFFF;" d="M63.665,207.093c-1.059,0-1.919-0.858-1.919-1.918v-5.866c0-1.06,0.859-1.918,1.919-1.918
					c1.059,0,1.918,0.858,1.918,1.918v5.866C65.583,206.235,64.724,207.093,63.665,207.093z"/>
			</g>
			<circle style="fill:#FFFFFF;" cx="68.237" cy="171.016" r="5.242"/>
			<circle style="fill:#FFFFFF;" cx="111.376" cy="171.016" r="5.242"/>
		</g>
		<g>
			<g>
				<rect x="115.638" y="257.549" style="fill:#C64094;" width="17.961" height="58.201"/>
				<rect x="115.664" y="257.549" style="fill:#8C3774;" width="8.955" height="58.201"/>
				<rect x="58.958" y="257.549" style="fill:#FFA961;" width="17.961" height="58.201"/>
				<rect x="76.919" y="257.549" style="fill:#C64094;" width="17.667" height="58.201"/>
				<rect x="20.239" y="257.549" style="fill:#FFA961;" width="17.814" height="58.201"/>
				<rect x="76.798" y="257.549" style="fill:#8C3774;" width="8.955" height="58.201"/>
				<rect x="58.984" y="257.549" style="fill:#FF7B54;" width="8.955" height="58.201"/>
				<rect x="20.191" y="257.549" style="fill:#FF7B54;" width="8.955" height="58.201"/>
				<path style="fill:#34C0C1;" d="M105.123,357.016L105.123,357.016c15.653,0,28.342-12.689,28.342-28.342v-13.067h-17.83v12.202
					c0,5.806-4.706,10.512-10.512,10.512l0,0c-5.806,0-10.512-4.706-10.512-10.512v-12.202h-17.83v13.067
					C76.781,344.327,89.47,357.016,105.123,357.016z"/>
				
					<ellipse transform="matrix(0.2289 -0.9735 0.9735 0.2289 -211.5279 364.908)" style="fill:#AF2F84;" cx="124.564" cy="315.969" rx="8.9" ry="8.9"/>
				<path style="fill:#34C0C1;" d="M48.462,357.016L48.462,357.016c15.653,0,28.342-12.689,28.342-28.342v-13.067h-17.83v12.202
					c0,5.806-4.706,10.512-10.512,10.512l0,0c-5.806,0-10.512-4.706-10.512-10.512v-12.202H20.12v13.067
					C20.12,344.327,32.81,357.016,48.462,357.016z"/>
				
					<ellipse transform="matrix(0.1602 -0.9871 0.9871 0.1602 -254.8627 332.3836)" style="opacity:0.74;fill:#F2292D;" cx="67.904" cy="315.969" rx="8.9" ry="8.9"/>
				<path style="fill:#AF2F84;" d="M76.752,315.969c0-4.915,3.985-8.9,8.9-8.9c4.916,0,8.9,3.985,8.9,8.9c0,4.916-3.985,8.9-8.9,8.9
					C80.737,324.87,76.752,320.885,76.752,315.969z"/>
				
					<ellipse transform="matrix(0.1602 -0.9871 0.9871 0.1602 -287.5417 293.9742)" style="opacity:0.74;fill:#F2292D;" cx="28.992" cy="315.969" rx="8.9" ry="8.9"/>
				<path style="fill:#4DDCBE;" d="M105.211,346.88c11.152,0,20.193-9.583,20.193-21.404v-0.69c-0.281,0.027-0.553,0.085-0.84,0.085
					c-4.915,0-8.9-3.985-8.9-8.9c0-0.125,0.032-0.24,0.036-0.363h-0.065v12.202c0,5.806-4.706,10.512-10.512,10.512
					c-5.806,0-10.512-4.706-10.512-10.512v-12.202h-0.095c0.005,0.123,0.037,0.238,0.037,0.363c0,4.915-3.985,8.9-8.9,8.9
					c-0.217,0-0.421-0.048-0.634-0.064v0.669C85.019,337.297,94.059,346.88,105.211,346.88z"/>
				<path style="fill:#4DDCBE;" d="M48.462,346.88c11.152,0,20.193-9.583,20.193-21.404v-0.69c-0.281,0.027-0.552,0.085-0.84,0.085
					c-4.915,0-8.901-3.985-8.901-8.9c0-0.125,0.032-0.24,0.037-0.363h-0.066v12.202c0,5.806-4.707,10.512-10.512,10.512
					c-5.806,0-10.512-4.706-10.512-10.512v-12.202h-0.095c0.005,0.123,0.037,0.238,0.037,0.363c0,4.915-3.985,8.9-8.9,8.9
					c-0.217,0-0.421-0.048-0.634-0.064v0.669C28.269,337.297,37.31,346.88,48.462,346.88z"/>
			</g>
			<g>
				<path style="fill:#FFFFFF;" d="M45.782,344.913c-0.108,0-0.218-0.008-0.328-0.024c-9.15-1.278-12.205-9.005-12.331-9.334
					c-0.462-1.207,0.144-2.562,1.353-3.025c1.196-0.458,2.55,0.139,3.018,1.338c0.099,0.245,2.269,5.496,8.609,6.382
					c1.282,0.179,2.174,1.362,1.995,2.644C47.935,344.066,46.931,344.913,45.782,344.913z"/>
			</g>
			
				<rect x="23.397" y="260.215" transform="matrix(0.7071 -0.7071 0.7071 0.7071 -179.5281 98.5078)" style="opacity:0.74;fill:#F2292D;" width="11.497" height="11.497"/>
			
				<rect x="26.415" y="263.089" transform="matrix(0.7071 -0.7071 0.7071 0.7071 -179.4881 98.612)" style="fill:#34C0C1;" width="5.749" height="5.749"/>
			
				<rect x="23.397" y="276.507" transform="matrix(0.7071 -0.7071 0.7071 0.7071 -191.047 103.2782)" style="opacity:0.74;fill:#F2292D;" width="11.497" height="11.497"/>
			
				<rect x="26.415" y="279.381" transform="matrix(0.7071 -0.7071 0.7071 0.7071 -191.006 103.3811)" style="fill:#34C0C1;" width="5.749" height="5.749"/>
			
				<rect x="23.397" y="292.798" transform="matrix(0.7071 -0.7071 0.7071 0.7071 -202.568 108.0512)" style="opacity:0.74;fill:#F2292D;" width="11.497" height="11.497"/>
			
				<rect x="26.415" y="295.672" transform="matrix(0.7071 -0.7071 0.7071 0.7071 -202.5259 108.1528)" style="fill:#34C0C1;" width="5.749" height="5.749"/>
			
				<rect x="62.189" y="260.215" transform="matrix(0.7071 -0.7071 0.7071 0.7071 -168.166 125.9384)" style="opacity:0.74;fill:#F2292D;" width="11.497" height="11.497"/>
			
				<rect x="65.207" y="263.089" transform="matrix(0.7071 -0.7071 0.7071 0.7071 -168.1239 126.04)" style="fill:#34C0C1;" width="5.749" height="5.749"/>
			
				<rect x="62.189" y="276.507" transform="matrix(0.7071 -0.7071 0.7071 0.7071 -179.685 130.7086)" style="opacity:0.74;fill:#F2292D;" width="11.497" height="11.497"/>
			
				<rect x="65.207" y="279.381" transform="matrix(0.7071 -0.7071 0.7071 0.7071 -179.642 130.8087)" style="fill:#34C0C1;" width="5.749" height="5.749"/>
			
				<rect x="62.189" y="292.798" transform="matrix(0.7071 -0.7071 0.7071 0.7071 -191.2059 135.4818)" style="opacity:0.74;fill:#F2292D;" width="11.497" height="11.497"/>
			
				<rect x="65.207" y="295.672" transform="matrix(0.7071 -0.7071 0.7071 0.7071 -191.1618 135.5803)" style="fill:#34C0C1;" width="5.749" height="5.749"/>
			
				<rect x="80.003" y="260.215" transform="matrix(0.7071 -0.7071 0.7071 0.7071 -162.9484 138.5347)" style="fill:#AF2F84;" width="11.497" height="11.497"/>
			
				<rect x="83.021" y="263.089" transform="matrix(0.7071 -0.7071 0.7071 0.7071 -162.9064 138.6363)" style="fill:#34C0C1;" width="5.749" height="5.749"/>
			
				<rect x="80.003" y="276.507" transform="matrix(0.7071 -0.7071 0.7071 0.7071 -174.4675 143.3048)" style="fill:#AF2F84;" width="11.497" height="11.497"/>
			
				<rect x="83.021" y="279.381" transform="matrix(0.7071 -0.7071 0.7071 0.7071 -174.4246 143.4048)" style="fill:#34C0C1;" width="5.749" height="5.749"/>
			
				<rect x="80.003" y="292.798" transform="matrix(0.7071 -0.7071 0.7071 0.7071 -185.9883 148.0782)" style="fill:#AF2F84;" width="11.497" height="11.497"/>
			
				<rect x="83.021" y="295.672" transform="matrix(0.7071 -0.7071 0.7071 0.7071 -185.9444 148.1764)" style="fill:#34C0C1;" width="5.749" height="5.749"/>
			
				<rect x="118.87" y="260.215" transform="matrix(0.7071 -0.7071 0.7071 0.7071 -151.5647 166.0173)" style="fill:#AF2F84;" width="11.497" height="11.497"/>
			
				<rect x="121.888" y="263.089" transform="matrix(0.7071 -0.7071 0.7071 0.7071 -151.5227 166.1189)" style="fill:#34C0C1;" width="5.749" height="5.749"/>
			
				<rect x="118.87" y="276.507" transform="matrix(0.7071 -0.7071 0.7071 0.7071 -163.084 170.7873)" style="fill:#AF2F84;" width="11.497" height="11.497"/>
			
				<rect x="121.888" y="279.381" transform="matrix(0.7071 -0.7071 0.7071 0.7071 -163.0413 170.8871)" style="fill:#34C0C1;" width="5.749" height="5.749"/>
			
				<rect x="118.87" y="292.798" transform="matrix(0.7071 -0.7071 0.7071 0.7071 -174.6046 175.5608)" style="fill:#AF2F84;" width="11.497" height="11.497"/>
			
				<rect x="121.888" y="295.672" transform="matrix(0.7071 -0.7071 0.7071 0.7071 -174.561 175.6587)" style="fill:#34C0C1;" width="5.749" height="5.749"/>
			<g>
				<path style="fill:#FFFFFF;" d="M24.668,290.783c-1.295,0-2.342-1.048-2.342-2.342v-23.552c0-1.294,1.047-2.342,2.342-2.342
					c1.295,0,2.342,1.048,2.342,2.342v23.552C27.01,289.735,25.963,290.783,24.668,290.783z"/>
			</g>
			<g>
				<path style="fill:#FFFFFF;" d="M81.275,304.267c-1.294,0-2.342-1.048-2.342-2.342v-21.611c0-1.294,1.048-2.342,2.342-2.342
					c1.295,0,2.342,1.047,2.342,2.342v21.611C83.617,303.219,82.57,304.267,81.275,304.267z"/>
			</g>
			<path style="fill:#FFFFFF;" d="M33.978,315.969c0,2.754-2.233,4.987-4.987,4.987c-2.754,0-4.987-2.233-4.987-4.987
				c0-2.754,2.233-4.987,4.987-4.987C31.746,310.983,33.978,313.215,33.978,315.969z"/>
			<path style="fill:#FFFFFF;" d="M72.89,315.969c0,2.754-2.233,4.987-4.987,4.987c-2.754,0-4.987-2.233-4.987-4.987
				c0-2.754,2.233-4.987,4.987-4.987C70.658,310.983,72.89,313.215,72.89,315.969z"/>
			<path style="fill:#FFFFFF;" d="M90.491,315.969c0,2.754-2.233,4.987-4.987,4.987c-2.754,0-4.987-2.233-4.987-4.987
				c0-2.754,2.233-4.987,4.987-4.987C88.258,310.983,90.491,313.215,90.491,315.969z"/>
			<path style="fill:#FFFFFF;" d="M129.605,315.969c0,2.754-2.233,4.987-4.987,4.987c-2.754,0-4.987-2.233-4.987-4.987
				c0-2.754,2.233-4.987,4.987-4.987C127.372,310.983,129.605,313.215,129.605,315.969z"/>
		</g>
		<g>
			<g>
				<g>
					<rect x="226.393" y="270.28" style="fill:#8C3774;" width="20.291" height="42.092"/>
					<rect x="226.393" y="312.235" style="fill:#FF7B54;" width="20.13" height="51.339"/>
					<rect x="236.539" y="270.28" style="fill:#C64094;" width="9.984" height="42.092"/>
					<rect x="236.539" y="312.235" style="fill:#FFA961;" width="9.905" height="51.339"/>
					<path style="fill:#34C0C1;" d="M291.537,300.946L291.537,300.946c0-17.003-13.784-30.787-30.787-30.787h-14.195v19.368h13.254
						c6.306,0,11.419,5.112,11.419,11.419l0,0c0,6.306-5.112,11.419-11.419,11.419h-13.254v19.368h14.195
						C277.753,331.733,291.537,317.949,291.537,300.946z"/>
					<path style="fill:#4DDCBE;" d="M255.877,318.386c0.476,1.143,0.74,2.395,0.74,3.71c0,3.78-2.175,7.045-5.337,8.635
						c0.003,0.425,0.005,0.688,0.007,0.688c16.612-0.201,27.214,10.079,26.603,25.299l14.33,0.048c0-0.038,0.001-0.076,0.001-0.113
						C292.222,335.92,276.318,320.395,255.877,318.386z"/>
					
						<ellipse transform="matrix(0.7071 -0.7071 0.7071 0.7071 -125.5377 256.5788)" style="fill:#AF2F84;" cx="246.949" cy="279.827" rx="9.668" ry="9.668"/>
					
						<ellipse transform="matrix(0.7071 -0.7071 0.7071 0.7071 -155.4265 268.9592)" style="opacity:0.74;fill:#F2292D;" cx="246.949" cy="322.096" rx="9.668" ry="9.668"/>
					<path style="fill:#4DDCBE;" d="M257.74,279.827h-1.123v0c0,5.34-4.329,9.668-9.668,9.668c-0.133,0-0.262-0.015-0.394-0.02
						v0.052h13.254c6.306,0,11.419,5.112,11.419,11.419c0,6.306-5.112,11.419-11.419,11.419h-13.254v0.083
						c0.132-0.005,0.261-0.02,0.394-0.02c5.34,0,9.668,4.329,9.668,9.668c0,0.188-0.018,0.372-0.028,0.558h1.151
						c13.398,0,24.26-9.587,24.26-21.414C282,289.414,271.138,279.827,257.74,279.827z"/>
					<path style="opacity:0.74;fill:#F2292D;" d="M277.867,356.39c0,3.965,3.215,7.18,7.18,7.18c3.965,0,7.18-3.215,7.18-7.18
						c0-3.965-3.215-7.18-7.18-7.18C281.082,349.21,277.867,352.424,277.867,356.39z"/>
				</g>
				<g>
					<path style="fill:#34C0C1;" d="M285.047,349.21c0.136,0,0.263,0.033,0.397,0.04c-3.754-13.342-15.042-22.909-29.06-25.062
						c-0.634,2.871-2.543,5.256-5.103,6.543c0.003,0.435,0.005,0.688,0.007,0.688c16.414-0.199,26.94,9.844,26.6,24.765
						C278,352.316,281.152,349.21,285.047,349.21z"/>
					<path style="fill:#34C0C1;" d="M277.89,356.62c-0.001,0.033,0.002,0.064,0.001,0.097h0.009
						C277.899,356.684,277.891,356.653,277.89,356.62z"/>
				</g>
				<g>
					<path style="fill:#FFFFFF;" d="M231.871,305.574c-1.214,0-2.196-0.982-2.196-2.195v-27.501c0-1.214,0.982-2.195,2.196-2.195
						c1.213,0,2.195,0.982,2.195,2.195v27.501C234.067,304.592,233.085,305.574,231.871,305.574z"/>
				</g>
				<g>
					<path style="fill:#FFFFFF;" d="M276.028,305.576c-0.274,0-0.551-0.051-0.82-0.16c-1.126-0.452-1.67-1.733-1.216-2.857
						c0.038-0.112,1.268-3.758-2.725-9.402c-3.367-4.76-8.986-5.81-9.042-5.819c-1.191-0.212-1.99-1.348-1.782-2.539
						c0.209-1.191,1.33-1.99,2.527-1.79c0.303,0.051,7.438,1.328,11.883,7.612c5.468,7.73,3.308,13.344,3.212,13.578
						C277.72,305.055,276.896,305.576,276.028,305.576z"/>
				</g>
				<g>
					<path style="fill:#FFFFFF;" d="M231.871,353.329c-1.214,0-2.196-0.982-2.196-2.195v-7.562c0-1.214,0.982-2.195,2.196-2.195
						c1.213,0,2.195,0.982,2.195,2.195v7.562C234.067,352.347,233.085,353.329,231.871,353.329z"/>
				</g>
			</g>
			
				<rect x="231.164" y="276.94" transform="matrix(0.7071 -0.7071 0.7071 0.7071 -130.3455 249.946)" style="fill:#AF2F84;" width="10.749" height="10.749"/>
			
				<rect x="233.986" y="279.761" transform="matrix(0.7071 -0.7071 0.7071 0.7071 -130.4015 250.0851)" style="fill:#34C0C1;" width="5.374" height="5.374"/>
			
				<rect x="231.164" y="296.084" transform="matrix(0.7071 -0.7071 0.7071 0.7071 -143.8828 255.5533)" style="fill:#AF2F84;" width="10.749" height="10.749"/>
			
				<rect x="233.986" y="298.906" transform="matrix(0.7071 -0.7071 0.7071 0.7071 -143.9391 255.6927)" style="fill:#34C0C1;" width="5.374" height="5.374"/>
			
				<rect x="231.164" y="316.009" transform="matrix(0.7071 -0.7071 0.7071 0.7071 -157.9719 261.3893)" style="opacity:0.74;fill:#F2292D;" width="10.749" height="10.749"/>
			
				<rect x="233.986" y="318.831" transform="matrix(0.7071 -0.7071 0.7071 0.7071 -158.0283 261.5287)" style="fill:#34C0C1;" width="5.374" height="5.374"/>
			
				<rect x="231.164" y="332.53" transform="matrix(0.7071 -0.7071 0.7071 0.7071 -169.6542 266.2307)" style="opacity:0.74;fill:#F2292D;" width="10.749" height="10.749"/>
			
				<rect x="233.986" y="335.351" transform="matrix(0.7071 -0.7071 0.7071 0.7071 -169.7103 266.3677)" style="fill:#34C0C1;" width="5.374" height="5.374"/>
			
				<rect x="231.164" y="349.05" transform="matrix(0.7071 -0.7071 0.7071 0.7071 -181.3356 271.0668)" style="opacity:0.74;fill:#F2292D;" width="10.749" height="10.749"/>
			
				<rect x="233.986" y="351.872" transform="matrix(0.7071 -0.7071 0.7071 0.7071 -181.3924 271.2066)" style="fill:#34C0C1;" width="5.374" height="5.374"/>
			<path style="fill:#FFFFFF;" d="M251.804,279.827c0,2.828-2.292,5.12-5.12,5.12s-5.12-2.292-5.12-5.12
				c0-2.828,2.292-5.12,5.12-5.12S251.804,276.999,251.804,279.827z"/>
			<path style="fill:#FFFFFF;" d="M251.804,322.096c0,2.828-2.292,5.12-5.12,5.12s-5.12-2.292-5.12-5.12
				c0-2.828,2.292-5.12,5.12-5.12S251.804,319.268,251.804,322.096z"/>
			<path style="fill:#FFFFFF;" d="M289.002,356.62c0,2.185-1.771,3.955-3.955,3.955c-2.184,0-3.955-1.771-3.955-3.955
				s1.771-3.955,3.955-3.955C287.232,352.665,289.002,354.435,289.002,356.62z"/>
		</g>
		<g>
			<g>
				<rect x="364.008" y="310.47" style="fill:#8C3774;" width="21.235" height="48.962"/>
				<rect x="364.008" y="261.557" style="fill:#FF7B54;" width="21.235" height="48.962"/>
				<path style="fill:#4DDCBE;" d="M384.97,339.759h0.612c10.009,0,30.002-6.721,30.002-29.43l0,0
					c0-25.103-19.993-28.943-30.002-28.943h-0.612l0,0v-19.92h2.105c26.986,0,48.863,21.877,48.863,48.863l0,0
					c0,26.986-21.877,48.863-48.863,48.863h-2.105V339.759z"/>
				<rect x="374.94" y="310.47" style="fill:#C64094;" width="10.303" height="48.962"/>
				<rect x="374.626" y="261.557" style="fill:#FFA961;" width="10.618" height="48.962"/>
				
					<ellipse transform="matrix(0.7592 -0.6508 0.6508 0.7592 -83.8324 316.2)" style="opacity:0.74;fill:#F2292D;" cx="385.436" cy="271.402" rx="9.855" ry="9.855"/>
				
					<ellipse transform="matrix(0.9839 -0.1785 0.1785 0.9839 -56.1909 74.472)" style="fill:#AF2F84;" cx="385.788" cy="349.521" rx="9.663" ry="9.663"/>
				<path style="fill:#34C0C1;" d="M395.291,271.401c0,5.443-4.413,9.855-9.855,9.855c-0.157,0-0.311-0.016-0.466-0.024v0.152h0.612
					c10.009,0,30.002,3.84,30.002,28.943c0,22.71-19.993,29.43-30.002,29.43h-0.612v0.14c0.27-0.023,0.542-0.041,0.818-0.041
					c5.337,0,9.663,4.326,9.663,9.663c0,0.293,32.226-9.135,30.706-39.193c-0.387-7.652-3.193-20.027-9.526-26.895
					C407.918,273.986,395.291,271.2,395.291,271.401z"/>
			</g>
			<g>
				<path style="fill:#FFFFFF;" d="M411.968,276.307c-0.486,0-0.975-0.154-1.392-0.47c-1.948-1.484-6.901-4.045-8.141-4.518
					c-1.186-0.452-1.781-1.78-1.328-2.966c0.451-1.185,1.777-1.783,2.966-1.329c1.661,0.633,7.01,3.42,9.29,5.156
					c1.009,0.77,1.203,2.211,0.434,3.221C413.345,275.995,412.66,276.307,411.968,276.307z"/>
			</g>
			
				<rect x="368.275" y="268.292" transform="matrix(0.7071 -0.7071 0.7071 0.7071 -84.4764 345.3413)" style="opacity:0.74;fill:#F2292D;" width="12.702" height="12.702"/>
			
				<rect x="371.609" y="271.626" transform="matrix(0.7071 -0.7071 0.7071 0.7071 -84.5422 345.5)" style="fill:#34C0C1;" width="6.351" height="6.351"/>
			
				<rect x="368.275" y="290.623" transform="matrix(0.7071 -0.7071 0.7071 0.7071 -100.2671 351.882)" style="opacity:0.74;fill:#F2292D;" width="12.702" height="12.702"/>
			
				<rect x="371.609" y="293.957" transform="matrix(0.7071 -0.7071 0.7071 0.7071 -100.3335 352.0354)" style="fill:#34C0C1;" width="6.351" height="6.351"/>
			
				<rect x="368.275" y="315.79" transform="matrix(0.7071 -0.7071 0.7071 0.7071 -118.0626 359.2532)" style="fill:#AF2F84;" width="12.702" height="12.702"/>
			
				<rect x="371.609" y="319.124" transform="matrix(0.7071 -0.7071 0.7071 0.7071 -118.1284 359.4119)" style="fill:#34C0C1;" width="6.351" height="6.351"/>
			
				<rect x="368.275" y="337.582" transform="matrix(0.7071 -0.7071 0.7071 0.7071 -133.4721 365.636)" style="fill:#AF2F84;" width="12.702" height="12.702"/>
			
				<rect x="371.609" y="340.916" transform="matrix(0.7071 -0.7071 0.7071 0.7071 -133.5378 365.7946)" style="fill:#34C0C1;" width="6.351" height="6.351"/>
			<g>
				<path style="fill:#FFFFFF;" d="M368.899,291.103c-1.269,0-2.298-1.029-2.298-2.298v-21.282c0-1.269,1.029-2.298,2.298-2.298
					s2.298,1.029,2.298,2.298v21.282C371.198,290.074,370.168,291.103,368.899,291.103z"/>
			</g>
			<g>
				<path style="fill:#FFFFFF;" d="M368.291,326.877c-1.269,0-2.298-1.029-2.298-2.298v-9.121c0-1.269,1.029-2.298,2.298-2.298
					c1.269,0,2.298,1.029,2.298,2.298v9.121C370.59,325.848,369.56,326.877,368.291,326.877z"/>
			</g>
			<circle style="fill:#FFFFFF;" cx="385.788" cy="349.527" r="5.052"/>
			<circle style="fill:#FFFFFF;" cx="385.436" cy="271.256" r="5.052"/>
		</g>
		<g>
			<g>
				<rect x="168.634" y="154.334" style="fill:#FF7B54;" width="19.404" height="14.35"/>
				<rect x="168.634" y="123.22" style="fill:#FF7B54;" width="19.404" height="14.35"/>
				<rect x="169.481" y="130.395" style="fill:#FFA961;" width="18.557" height="7.197"/>
				<rect x="169.481" y="161.51" style="fill:#FFA961;" width="18.557" height="7.197"/>
				<rect x="168.634" y="168.684" style="fill:#8C3774;" width="19.404" height="14.283"/>
				<rect x="168.634" y="199.732" style="fill:#8C3774;" width="19.404" height="14.283"/>
				<path style="fill:#4DDCBE;" d="M136.348,146.026L136.348,146.026c0-12.524,10.153-22.677,22.677-22.677h10.456v14.266h-9.763
					c-4.645,0-8.411,3.766-8.411,8.411l0,0c0,4.645,3.766,8.411,8.411,8.411h9.763v14.266h-10.456
					C146.501,168.704,136.348,158.55,136.348,146.026z"/>
				<rect x="169.481" y="175.615" style="fill:#C64094;" width="18.557" height="7.197"/>
				<rect x="169.481" y="206.874" style="fill:#C64094;" width="18.557" height="7.197"/>
				<path style="fill:#4DDCBE;" d="M136.348,191.359L136.348,191.359c0-12.525,10.153-22.678,22.677-22.678h10.456v14.267h-9.763
					c-4.645,0-8.411,3.766-8.411,8.411l0,0c0,4.645,3.766,8.411,8.411,8.411h9.763v14.267h-10.456
					C146.501,214.037,136.348,203.884,136.348,191.359z"/>
				<circle style="opacity:0.74;fill:#F2292D;" cx="169.191" cy="130.47" r="7.122"/>
				<circle style="fill:#AF2F84;" cx="169.191" cy="175.803" r="7.122"/>
				<path style="opacity:0.74;fill:#F2292D;" d="M169.191,168.727c3.933,0,7.122-3.189,7.122-7.122c0-3.933-3.189-7.122-7.122-7.122
					c-3.933,0-7.122,3.188-7.122,7.122C162.069,165.538,165.257,168.727,169.191,168.727z"/>
				<circle style="fill:#AF2F84;" cx="169.191" cy="206.938" r="7.122"/>
				<path style="fill:#34C0C1;" d="M162.075,129.942h0.004c-0.01,0.156-0.047,0.304-0.047,0.462c0,3.953,3.204,7.157,7.157,7.157
					c0.1,0,0.193-0.025,0.292-0.03v0.053h-9.812c-4.669,0-8.453,3.785-8.453,8.453c0,4.669,3.785,8.453,8.453,8.453h9.812v0.076
					c-0.099-0.004-0.192-0.029-0.292-0.029c-3.953,0-7.157,3.204-7.157,7.157c0,0.507,0.056,1,0.156,1.477h-0.113
					c-10.178,0-18.428-7.439-18.428-16.615C143.647,137.381,151.897,129.942,162.075,129.942z"/>
				<path style="fill:#34C0C1;" d="M162.075,175.615h0.004c-0.01,0.153-0.047,0.298-0.047,0.453c0,3.872,3.496,6.744,7.449,6.744
					c0.1,0-4.704,0.142-4.704,0.142l-5.108,0.148c-4.669,0-8.453,3.707-8.453,8.28s3.833,8.388,8.502,8.388
					c0,0,9.571-0.062,9.471-0.062c-3.953,0-7.33,3.807-7.157,7.011c0.027,0.495,0.056,0.979,0.156,1.447h-0.113
					c-10.178,0-18.428-7.287-18.428-16.275C143.647,182.902,151.897,175.615,162.075,175.615z"/>
			</g>
			<g>
				<path style="fill:#FFFFFF;" d="M141.767,141.776c-0.104,0-0.21-0.007-0.316-0.023c-1.147-0.175-1.948-1.21-1.798-2.361
					c0.059-0.453,0.501-2.92,3.486-7.086c3.163-4.414,10.65-6.68,11.494-6.923c1.121-0.329,2.313,0.323,2.641,1.456
					c0.328,1.131-0.324,2.314-1.454,2.644c-1.9,0.553-7.258,2.584-9.21,5.31c-2.382,3.324-2.728,5.176-2.73,5.195
					C143.696,141.024,142.79,141.776,141.767,141.776z"/>
			</g>
			<g>
				<path style="fill:#FFFFFF;" d="M142.052,155.774c-0.618,0-1.229-0.266-1.65-0.78c-2.688-3.271-2.05-8.198-1.969-8.749
					c0.173-1.166,1.268-1.973,2.425-1.798c1.163,0.172,1.967,1.254,1.798,2.417c-0.138,0.986-0.222,3.88,1.042,5.421
					c0.748,0.91,0.618,2.255-0.294,3.003C143.008,155.615,142.529,155.774,142.052,155.774z"/>
			</g>
			<g>
				<path style="fill:#FFFFFF;" d="M140.464,194.875c-0.969,0-1.845-0.663-2.076-1.647c-1.047-4.462,0.947-7.857,1.034-7.999
					c0.606-1.012,1.917-1.338,2.927-0.732c1.004,0.604,1.334,1.903,0.741,2.912c-0.065,0.114-1.182,2.139-0.547,4.844
					c0.269,1.147-0.442,2.295-1.589,2.565C140.789,194.857,140.626,194.875,140.464,194.875z"/>
			</g>
			
				<rect x="178.185" y="126.58" transform="matrix(0.7071 -0.7071 0.7071 0.7071 -38.8965 166.8853)" style="opacity:0.74;fill:#F2292D;" width="7.629" height="7.629"/>
			
				<rect x="180.188" y="128.583" transform="matrix(0.7071 -0.7071 0.7071 0.7071 -38.936 166.9805)" style="fill:#34C0C1;" width="3.815" height="3.815"/>
			
				<rect x="178.185" y="157.79" transform="matrix(0.7071 -0.7071 0.7071 0.7071 -60.9656 176.0266)" style="opacity:0.74;fill:#F2292D;" width="7.629" height="7.629"/>
			
				<rect x="180.188" y="159.793" transform="matrix(0.7071 -0.7071 0.7071 0.7071 -61.005 176.1218)" style="fill:#34C0C1;" width="3.815" height="3.815"/>
			
				<rect x="178.185" y="171.801" transform="matrix(0.7071 -0.7071 0.7071 0.7071 -70.8721 180.1301)" style="fill:#AF2F84;" width="7.629" height="7.629"/>
			
				<rect x="180.188" y="173.803" transform="matrix(0.7071 -0.7071 0.7071 0.7071 -70.9117 180.2253)" style="fill:#34C0C1;" width="3.815" height="3.815"/>
			
				<rect x="178.185" y="203.124" transform="matrix(0.7071 -0.7071 0.7071 0.7071 -93.021 189.3044)" style="fill:#AF2F84;" width="7.629" height="7.629"/>
			
				<rect x="180.188" y="205.126" transform="matrix(0.7071 -0.7071 0.7071 0.7071 -93.0605 189.3996)" style="fill:#34C0C1;" width="3.815" height="3.815"/>
			<g>
				<path style="fill:#FFFFFF;" d="M184.303,159.398h-4.988c-1.179,0-2.133-0.956-2.133-2.134c0-1.178,0.954-2.134,2.133-2.134
					h4.988c1.179,0,2.133,0.956,2.133,2.134C186.437,158.442,185.482,159.398,184.303,159.398z"/>
			</g>
			<path style="fill:#FFFFFF;" d="M173.46,130.47c0,2.358-1.911,4.27-4.27,4.27c-2.358,0-4.27-1.911-4.27-4.27s1.912-4.27,4.27-4.27
				C171.549,126.2,173.46,128.112,173.46,130.47z"/>
			<path style="fill:#FFFFFF;" d="M173.46,161.509c0,2.358-1.911,4.27-4.27,4.27c-2.358,0-4.27-1.911-4.27-4.27
				s1.912-4.27,4.27-4.27C171.549,157.24,173.46,159.151,173.46,161.509z"/>
			<path style="fill:#FFFFFF;" d="M173.46,175.615c0,2.358-1.911,4.27-4.27,4.27c-2.358,0-4.27-1.912-4.27-4.27
				s1.912-4.27,4.27-4.27C171.549,171.346,173.46,173.257,173.46,175.615z"/>
			<path style="fill:#FFFFFF;" d="M173.46,206.874c0,2.358-1.911,4.27-4.27,4.27c-2.358,0-4.27-1.911-4.27-4.27
				s1.912-4.27,4.27-4.27C171.549,202.604,173.46,204.516,173.46,206.874z"/>
		</g>
		<g>
			<g>
				<g>
					<path style="fill:#C64094;" d="M345.143,195.443c-19.288-0.406-23.452-15.976-23.452-23.837v-0.487h-0.083H306.09v1.675
						c0,21.226,17.923,38.468,39.053,38.865V195.443z"/>
					<path style="fill:#FFA961;" d="M345.143,195.443c19.288-0.406,23.229-15.976,23.229-23.837v-0.487h0.359h15.519v1.675
						c0,21.226-17.975,38.468-39.106,38.865V195.443z"/>
					<path style="fill:#4DDCBE;" d="M321.691,171.134v-0.49c0-8.004,5.375-23.992,23.535-23.992l0,0
						c20.075,0,23.146,15.988,23.146,23.992v0.49v0h15.93v-1.684c0-21.581-17.495-39.076-39.076-39.076h0
						c-21.581,0-39.076,17.495-39.076,39.076v1.684H321.691z"/>
					<path style="fill:#8C3774;" d="M321.691,171.606v-0.472h-7.807v1.29c0,16.343,14.325,29.618,31.215,29.924v-6.907
						C325.85,195.011,321.691,179.46,321.691,171.606z"/>
					<path style="fill:#FF7B54;" d="M368.372,171.606c0,7.861-3.941,23.431-23.229,23.837v6.903
						c16.87-0.328,31.213-13.594,31.213-29.922v-1.29h-7.984V171.606z"/>
					<path style="opacity:0.74;fill:#F2292D;" d="M384.238,170.761c0,4.353-3.529,7.882-7.881,7.882
						c-4.353,0-7.881-3.529-7.881-7.882c0-4.353,3.529-7.881,7.881-7.881C380.709,162.88,384.238,166.408,384.238,170.761z"/>
					
						<ellipse transform="matrix(0.7071 -0.7071 0.7071 0.7071 -28.6127 271.882)" style="fill:#AF2F84;" cx="313.884" cy="170.48" rx="7.728" ry="7.728"/>
					<path style="fill:#34C0C1;" d="M368.372,171.134h0.121c-0.006-0.124-0.019-0.247-0.019-0.373c0-4.109,3.145-7.479,7.158-7.845
						c-2.985-14.063-14.994-24.579-30.099-24.579h0c-15.061,0-27.655,10.455-30.855,24.455c3.895,0.397,6.934,3.687,6.934,7.687
						c0,0.221-0.015,0.438-0.033,0.654h0.112v-0.49c0-8.004,5.375-23.992,23.535-23.992c20.075,0,23.146,15.988,23.146,23.992
						V171.134L368.372,171.134z"/>
				</g>
				<g>
					<path style="fill:#FFFFFF;" d="M315.758,152.668c-0.333,0-0.671-0.088-0.978-0.27c-0.907-0.542-1.204-1.717-0.663-2.624
						c0.175-0.294,4.391-7.263,12.583-12.177c6.391-3.836,13.339-4.932,13.632-4.977c1.047-0.154,2.02,0.558,2.18,1.6
						c0.16,1.044-0.556,2.021-1.6,2.182c-0.065,0.011-6.518,1.039-12.243,4.475c-7.377,4.427-11.228,10.793-11.266,10.856
						C317.045,152.335,316.41,152.668,315.758,152.668z"/>
				</g>
				<g>
					<path style="fill:#FFFFFF;" d="M312.385,160.726c-0.221,0-0.445-0.038-0.664-0.12c-0.991-0.367-1.497-1.467-1.131-2.457
						l1.012-2.738c0.367-0.991,1.468-1.503,2.459-1.131c0.991,0.367,1.497,1.467,1.131,2.457l-1.013,2.738
						C313.894,160.247,313.163,160.726,312.385,160.726z"/>
				</g>
				
					<rect x="311.411" y="180.369" transform="matrix(0.4643 -0.8857 0.8857 0.4643 5.2435 379.8482)" style="fill:#AF2F84;" width="10.441" height="10.441"/>
				
					<rect x="314.021" y="182.979" transform="matrix(0.4643 -0.8857 0.8857 0.4643 5.2418 379.8456)" style="fill:#34C0C1;" width="5.221" height="5.221"/>
				
					<rect x="319.775" y="191.276" transform="matrix(-0.2006 -0.9797 0.9797 -0.2006 197.6856 554.3024)" style="fill:#AF2F84;" width="10.441" height="10.441"/>
				
					<rect x="322.566" y="193.849" transform="matrix(-0.2006 -0.9797 0.9797 -0.2006 197.9417 554.4361)" style="fill:#34C0C1;" width="5.221" height="5.221"/>
				
					<rect x="332.792" y="197.537" transform="matrix(-0.4547 -0.8906 0.8906 -0.4547 311.1349 596.0021)" style="fill:#AF2F84;" width="10.441" height="10.441"/>
				
					<rect x="335.567" y="200.064" transform="matrix(-0.4547 -0.8906 0.8906 -0.4547 311.4486 596.0265)" style="fill:#34C0C1;" width="5.221" height="5.221"/>
				
					<rect x="368.411" y="180.369" transform="matrix(-0.4643 -0.8857 0.8857 -0.4643 382.7436 602.6754)" style="opacity:0.74;fill:#F2292D;" width="10.441" height="10.441"/>
				
					<rect x="371.021" y="182.979" transform="matrix(-0.4643 -0.8857 0.8857 -0.4643 382.7471 602.6754)" style="fill:#34C0C1;" width="5.221" height="5.221"/>
				
					<rect x="360.047" y="191.276" transform="matrix(0.2006 -0.9797 0.9797 0.2006 99.4941 514.9233)" style="opacity:0.74;fill:#F2292D;" width="10.441" height="10.441"/>
				
					<rect x="364.723" y="194.723" transform="matrix(0.2006 -0.9797 0.9797 0.2006 100.3227 517.6137)" style="fill:#34C0C1;" width="5.221" height="5.221"/>
				
					<rect x="347.03" y="197.537" transform="matrix(0.4547 -0.8906 0.8906 0.4547 11.4895 424.2825)" style="opacity:0.74;fill:#F2292D;" width="10.441" height="10.441"/>
				
					<rect x="349.476" y="200.064" transform="matrix(0.4547 -0.8906 0.8906 0.4547 11.4712 424.0851)" style="fill:#34C0C1;" width="5.221" height="5.221"/>
				<g>
					<path style="fill:#FFFFFF;" d="M345.314,200.571c-2.258,0-6.894-0.169-10.608-1.407c-5.07-1.69-8.638-5.032-8.787-5.173
						c-0.768-0.726-0.801-1.938-0.075-2.705c0.726-0.766,1.935-0.799,2.702-0.077l0,0c0.031,0.029,3.13,2.911,7.369,4.324
						c4.323,1.44,10.523,1.193,10.585,1.19c1.04-0.069,1.948,0.774,1.994,1.828c0.046,1.056-0.772,1.949-1.827,1.995
						C346.595,200.55,346.098,200.571,345.314,200.571z"/>
				</g>
			</g>
			<path style="fill:#FFFFFF;" d="M318.004,170.761c0,2.296-1.861,4.157-4.157,4.157c-2.296,0-4.157-1.861-4.157-4.157
				c0-2.296,1.861-4.157,4.157-4.157C316.142,166.604,318.004,168.465,318.004,170.761z"/>
			<path style="fill:#FFFFFF;" d="M380.514,170.761c0,2.296-1.861,4.157-4.157,4.157c-2.296,0-4.157-1.861-4.157-4.157
				c0-2.296,1.861-4.157,4.157-4.157C378.652,166.604,380.514,168.465,380.514,170.761z"/>
		</g>
		<g>
			<g>
				<g>
					<path style="fill:#C64094;" d="M179.734,308.074c-17.642-0.371-21.45-14.612-21.45-21.802v-0.446h-0.076h-14.194v1.532
						c0,19.414,16.393,35.184,35.72,35.547V308.074z"/>
					<path style="fill:#FFA961;" d="M179.734,308.074c17.642-0.371,21.246-14.612,21.246-21.802v-0.446h0.328h14.194v1.532
						c0,19.414-16.441,35.184-35.768,35.547V308.074z"/>
					<path style="fill:#4DDCBE;" d="M158.284,285.84v-0.448c0-7.321,4.916-21.944,21.526-21.944l0,0
						c18.361,0,21.17,14.623,21.17,21.944v0.448v0h14.57v-1.54c0-19.739-16.002-35.74-35.74-35.74h0
						c-19.739,0-35.74,16.001-35.74,35.74v1.54H158.284z"/>
					<path style="fill:#8C3774;" d="M158.284,286.272v-0.432h-7.141v1.18c0,14.948,13.102,27.09,28.55,27.37v-6.318
						C162.087,307.679,158.284,293.456,158.284,286.272z"/>
					<path style="fill:#FF7B54;" d="M200.98,286.272c0,7.19-3.605,21.431-21.246,21.802v6.314
						c15.43-0.3,28.549-12.433,28.549-27.368v-1.18h-7.302V286.272z"/>
					<path style="opacity:0.74;fill:#F2292D;" d="M215.491,285.499c0,3.981-3.227,7.209-7.209,7.209
						c-3.981,0-7.209-3.228-7.209-7.209s3.227-7.209,7.209-7.209C212.264,278.291,215.491,281.518,215.491,285.499z"/>
					<circle style="fill:#AF2F84;" cx="151.143" cy="285.242" r="7.068"/>
					<path style="fill:#34C0C1;" d="M200.98,285.84h0.111c-0.005-0.114-0.017-0.226-0.017-0.341c0-3.758,2.876-6.841,6.547-7.175
						c-2.731-12.862-13.714-22.481-27.53-22.481h0c-13.775,0-25.295,9.562-28.221,22.368c3.562,0.364,6.342,3.373,6.342,7.031
						c0,0.202-0.014,0.401-0.03,0.598h0.103v-0.448c0-7.321,4.916-21.944,21.526-21.944c18.361,0,21.17,14.623,21.17,21.944V285.84
						L200.98,285.84z"/>
				</g>
				<g>
					<path style="fill:#FFFFFF;" d="M152.857,268.951c-0.305,0-0.614-0.081-0.895-0.247c-0.83-0.496-1.101-1.57-0.606-2.4
						c0.16-0.269,4.016-6.643,11.509-11.138c5.846-3.509,12.201-4.511,12.468-4.552c0.958-0.141,1.847,0.51,1.994,1.464
						c0.146,0.955-0.509,1.848-1.463,1.996c-0.059,0.01-5.961,0.95-11.198,4.092c-6.747,4.049-10.269,9.872-10.304,9.93
						C154.034,268.646,153.453,268.951,152.857,268.951z"/>
				</g>
				<g>
					<path style="fill:#FFFFFF;" d="M149.772,276.321c-0.202,0-0.407-0.035-0.607-0.11c-0.906-0.335-1.369-1.342-1.035-2.247
						l0.926-2.504c0.336-0.907,1.343-1.375,2.249-1.035c0.906,0.335,1.369,1.342,1.035,2.248l-0.926,2.504
						C151.152,275.883,150.483,276.321,149.772,276.321z"/>
				</g>
				
					<rect x="148.881" y="294.287" transform="matrix(0.4643 -0.8857 0.8857 0.4643 -182.5589 296.2898)" style="fill:#AF2F84;" width="9.55" height="9.55"/>
				
					<rect x="151.269" y="296.674" transform="matrix(0.4643 -0.8857 0.8857 0.4643 -182.559 296.2962)" style="fill:#34C0C1;" width="4.775" height="4.775"/>
				
					<rect x="156.531" y="304.263" transform="matrix(-0.2006 -0.9797 0.9797 -0.2006 -109.0932 529.0569)" style="fill:#AF2F84;" width="9.55" height="9.55"/>
				
					<rect x="159.084" y="306.617" transform="matrix(-0.2006 -0.9797 0.9797 -0.2006 -108.8593 529.181)" style="fill:#34C0C1;" width="4.775" height="4.775"/>
				
					<rect x="168.437" y="309.99" transform="matrix(-0.4547 -0.8906 0.8906 -0.4547 -28.3638 612.1647)" style="fill:#AF2F84;" width="9.55" height="9.55"/>
				
					<rect x="170.975" y="312.301" transform="matrix(-0.4547 -0.8906 0.8906 -0.4547 -28.0726 612.1899)" style="fill:#34C0C1;" width="4.775" height="4.775"/>
				
					<rect x="201.015" y="294.287" transform="matrix(-0.4643 -0.8857 0.8857 -0.4643 36.4736 620.1844)" style="opacity:0.74;fill:#F2292D;" width="9.55" height="9.55"/>
				
					<rect x="203.403" y="296.674" transform="matrix(-0.4643 -0.8857 0.8857 -0.4643 36.4734 620.1843)" style="fill:#34C0C1;" width="4.775" height="4.775"/>
				
					<rect x="193.365" y="304.263" transform="matrix(0.2006 -0.9797 0.9797 0.2006 -144.362 441.1598)" style="opacity:0.74;fill:#F2292D;" width="9.55" height="9.55"/>
				
					<rect x="195.588" y="306.617" transform="matrix(0.2006 -0.9797 0.9797 0.2006 -144.4598 440.9739)" style="fill:#34C0C1;" width="4.775" height="4.775"/>
				
					<rect x="181.459" y="309.99" transform="matrix(0.4547 -0.8906 0.8906 0.4547 -178.791 337.4965)" style="opacity:0.74;fill:#F2292D;" width="9.55" height="9.55"/>
				
					<rect x="183.697" y="312.301" transform="matrix(0.4547 -0.8906 0.8906 0.4547 -178.8047 337.3195)" style="fill:#34C0C1;" width="4.775" height="4.775"/>
				<g>
					<path style="fill:#FFFFFF;" d="M179.89,312.765c-2.065,0-6.306-0.154-9.702-1.287c-4.637-1.546-7.9-4.602-8.037-4.731
						c-0.702-0.664-0.732-1.772-0.068-2.474c0.664-0.701,1.77-0.731,2.471-0.07l0,0c0.028,0.026,2.863,2.662,6.74,3.955
						c3.954,1.317,9.625,1.091,9.681,1.089c0.951-0.063,1.782,0.708,1.824,1.672c0.042,0.966-0.706,1.782-1.671,1.824
						C181.062,312.746,180.607,312.765,179.89,312.765z"/>
				</g>
			</g>
			<circle style="fill:#FFFFFF;" cx="151.109" cy="285.499" r="3.803"/>
			<path style="fill:#FFFFFF;" d="M212.085,285.499c0,2.1-1.702,3.803-3.802,3.803c-2.1,0-3.802-1.702-3.802-3.803
				c0-2.1,1.702-3.802,3.802-3.802C210.383,281.697,212.085,283.399,212.085,285.499z"/>
		</g>
		<g>
			<g>
				<rect x="206.219" y="146.492" style="fill:#8C3774;" width="12.56" height="32.399"/>
				<rect x="212.611" y="146.492" style="fill:#C64094;" width="6.149" height="32.399"/>
				<rect x="226.445" y="199.246" style="fill:#FF7B54;" width="17.456" height="12.689"/>
				<rect x="226.445" y="205.522" style="fill:#FFA961;" width="17.456" height="6.345"/>
				<path style="fill:#4DDCBE;" d="M206.191,190.245h-0.005v-24.64h12.596v24.486h0.033c0,0.009,0,0.017,0,0.026
					c0,5.064,4.105,9.17,9.17,9.17c0.009,0,0.017,0,0.026,0v12.628c-0.02,0-0.041,0.001-0.061,0.001
					C215.961,211.916,206.241,202.222,206.191,190.245z"/>
				<path style="opacity:0.74;fill:#F2292D;" d="M227.757,199.346c3.457,0.107,6.172,2.995,6.066,6.452
					c-0.107,3.457-2.995,6.172-6.452,6.066c-3.457-0.107-6.172-2.995-6.066-6.452C221.411,201.955,224.3,199.24,227.757,199.346z"/>
				<path style="fill:#AF2F84;" d="M216.91,161.438c2.449,2.425,2.469,6.376,0.044,8.825c-2.425,2.449-6.376,2.469-8.825,0.044
					c-2.449-2.425-2.469-6.376-0.044-8.825C210.51,159.033,214.461,159.013,216.91,161.438z"/>
				<path style="fill:#34C0C1;" d="M227.757,199.346c0.086,0.003,0.169,0.015,0.254,0.021v-0.08c-0.009,0-0.017,0-0.026,0
					c-5.064,0-9.17-4.105-9.17-9.169c0-0.009,0-0.017,0-0.026h-0.033v-24.487h-0.046c0.072,1.675-0.509,3.373-1.782,4.658
					c-1.226,1.238-2.841,1.851-4.455,1.845v15.907h0.005c0.03,6.567,3.584,12.367,9.023,15.945
					C222.269,201.228,224.802,199.255,227.757,199.346z"/>
			</g>
			<g>
				<path style="fill:#FFFFFF;" d="M211.655,199.049c-0.525,0-1.038-0.27-1.325-0.756c-1.364-2.311-2.834-6.654-2.834-10.725
					v-12.384c0-0.85,0.688-1.537,1.537-1.537c0.85,0,1.537,0.687,1.537,1.537v12.384c0,3.731,1.439,7.523,2.408,9.162
					c0.431,0.731,0.189,1.674-0.542,2.106C212.19,198.979,211.921,199.049,211.655,199.049z"/>
			</g>
			
				<rect x="235.769" y="202.794" transform="matrix(0.7071 -0.7071 0.7071 0.7071 -75.5063 228.9216)" style="opacity:0.74;fill:#F2292D;" width="5.622" height="5.622"/>
			
				<rect x="237.244" y="204.27" transform="matrix(0.7071 -0.7071 0.7071 0.7071 -75.5354 228.9918)" style="fill:#34C0C1;" width="2.811" height="2.811"/>
			
				<rect x="208.417" y="148.999" transform="matrix(0.7071 -0.7071 0.7071 0.7071 -46.0518 195.2083)" style="fill:#AF2F84;" width="8.39" height="8.39"/>
			
				<rect x="210.619" y="151.201" transform="matrix(0.7071 -0.7071 0.7071 0.7071 -46.0952 195.3131)" style="fill:#34C0C1;" width="4.195" height="4.195"/>
			<g>
				<path style="fill:#FFFFFF;" d="M209.033,157.92c-0.849,0-1.537-0.688-1.537-1.538v-6.96c0-0.849,0.688-1.538,1.537-1.538
					c0.85,0,1.537,0.689,1.537,1.538v6.96C210.57,157.232,209.883,157.92,209.033,157.92z"/>
			</g>
			<path style="fill:#FFFFFF;" d="M216.419,165.607c0,2.154-1.746,3.9-3.9,3.9c-2.154,0-3.9-1.746-3.9-3.9
				c0-2.154,1.746-3.9,3.9-3.9C214.674,161.708,216.419,163.454,216.419,165.607z"/>
			<path style="fill:#FFFFFF;" d="M231.463,205.793c0,2.154-1.746,3.9-3.9,3.9c-2.154,0-3.9-1.746-3.9-3.9
				c0-2.154,1.746-3.9,3.9-3.9C229.717,201.894,231.463,203.64,231.463,205.793z"/>
		</g>
		<g>
			<g>
				<rect x="253.611" y="127.362" style="fill:#8C3774;" width="17.579" height="45.346"/>
				<rect x="262.558" y="127.362" style="fill:#C64094;" width="8.606" height="45.346"/>
				<rect x="281.919" y="201.195" style="fill:#FF7B54;" width="24.431" height="17.76"/>
				<rect x="281.919" y="209.98" style="fill:#FFA961;" width="24.431" height="8.88"/>
				<path style="fill:#4DDCBE;" d="M253.572,188.598h-0.006v-34.486h17.629v34.271h0.046c0,0.012,0,0.024,0,0.036
					c0,7.088,5.746,12.834,12.834,12.834c0.012,0,0.024-0.001,0.036-0.001v17.674c-0.029,0-0.057,0.001-0.086,0.001
					C267.246,218.928,253.642,205.36,253.572,188.598z"/>
				<path style="opacity:0.74;fill:#F2292D;" d="M283.755,201.336c4.838,0.149,8.639,4.192,8.489,9.03
					c-0.149,4.838-4.192,8.639-9.03,8.49s-8.639-4.192-8.489-9.03S278.917,201.187,283.755,201.336z"/>
				<path style="fill:#AF2F84;" d="M268.574,148.28c3.428,3.394,3.456,8.924,0.062,12.352c-3.394,3.428-8.924,3.456-12.352,0.062
					c-3.428-3.394-3.456-8.924-0.062-12.352C259.616,144.914,265.146,144.886,268.574,148.28z"/>
				<path style="fill:#34C0C1;" d="M283.755,201.336c0.12,0.004,0.236,0.02,0.355,0.029v-0.112c-0.012,0-0.024,0.001-0.036,0.001
					c-7.088,0-12.834-5.746-12.834-12.834c0-0.012,0-0.024,0-0.036h-0.046v-34.271h-0.064c0.1,2.344-0.713,4.72-2.494,6.519
					c-1.715,1.732-3.976,2.59-6.235,2.583v22.263h0.006c0.043,9.191,5.016,17.309,12.628,22.317
					C276.074,203.97,279.62,201.208,283.755,201.336z"/>
			</g>
			<g>
				<path style="fill:#FFFFFF;" d="M261.219,200.92c-0.735,0-1.453-0.378-1.855-1.059c-1.909-3.235-3.966-9.313-3.966-15.011
					v-17.333c0-1.189,0.962-2.151,2.151-2.151c1.189,0,2.151,0.962,2.151,2.151v17.333c0,5.222,2.015,10.529,3.37,12.823
					c0.603,1.023,0.264,2.342-0.759,2.947C261.968,200.822,261.591,200.92,261.219,200.92z"/>
			</g>
			
				<rect x="294.968" y="206.161" transform="matrix(0.7071 -0.7071 0.7071 0.7071 -61.0135 272.8916)" style="opacity:0.74;fill:#F2292D;" width="7.868" height="7.868"/>
			
				<rect x="297.034" y="208.227" transform="matrix(0.7071 -0.7071 0.7071 0.7071 -61.0553 272.9834)" style="fill:#34C0C1;" width="3.934" height="3.934"/>
			
				<rect x="256.686" y="130.87" transform="matrix(0.7071 -0.7071 0.7071 0.7071 -19.7897 225.7051)" style="fill:#AF2F84;" width="11.742" height="11.742"/>
			
				<rect x="259.769" y="133.952" transform="matrix(0.7071 -0.7071 0.7071 0.7071 -19.8499 225.8535)" style="fill:#34C0C1;" width="5.871" height="5.871"/>
			<g>
				<path style="fill:#FFFFFF;" d="M257.55,143.356c-1.189,0-2.151-0.964-2.151-2.152v-9.741c0-1.188,0.962-2.152,2.151-2.152
					c1.189,0,2.151,0.964,2.151,2.152v9.741C259.701,142.393,258.739,143.356,257.55,143.356z"/>
			</g>
			<path style="fill:#FFFFFF;" d="M267.887,154.115c0,3.014-2.444,5.458-5.458,5.458c-3.014,0-5.458-2.444-5.458-5.458
				s2.444-5.458,5.458-5.458C265.444,148.657,267.887,151.101,267.887,154.115z"/>
			<path style="fill:#FFFFFF;" d="M288.942,210.359c0,3.014-2.444,5.458-5.458,5.458c-3.014,0-5.458-2.444-5.458-5.458
				c0-3.014,2.444-5.458,5.458-5.458C286.499,204.901,288.942,207.345,288.942,210.359z"/>
		</g>
		<g>
			<g>
				<rect x="301.629" y="248.234" style="fill:#8C3774;" width="17.674" height="45.59"/>
				<rect x="310.624" y="248.234" style="fill:#C64094;" width="8.653" height="45.59"/>
				<rect x="330.089" y="322.465" style="fill:#FF7B54;" width="24.562" height="17.855"/>
				<rect x="330.089" y="331.296" style="fill:#FFA961;" width="24.562" height="8.928"/>
				<path style="fill:#4DDCBE;" d="M301.589,309.8h-0.006v-34.671h17.724v34.456h0.046c0,0.012-0.001,0.024-0.001,0.036
					c0,7.126,5.777,12.903,12.903,12.903c0.012,0,0.024-0.001,0.036-0.001v17.769c-0.029,0-0.057,0.001-0.086,0.001
					C315.337,340.293,301.66,326.652,301.589,309.8z"/>
				<path style="opacity:0.74;fill:#F2292D;" d="M331.935,322.606c4.864,0.15,8.685,4.215,8.535,9.078
					c-0.15,4.864-4.215,8.685-9.078,8.535c-4.864-0.15-8.685-4.215-8.535-9.079C323.006,326.277,327.071,322.456,331.935,322.606z"
					/>
				<path style="fill:#AF2F84;" d="M316.673,269.264c3.447,3.412,3.475,8.972,0.063,12.418c-3.412,3.447-8.972,3.474-12.418,0.062
					c-3.447-3.412-3.474-8.972-0.062-12.419C307.667,265.88,313.226,265.852,316.673,269.264z"/>
				<path style="fill:#34C0C1;" d="M331.935,322.606c0.121,0.004,0.238,0.021,0.357,0.029v-0.112c-0.012,0-0.024,0-0.036,0
					c-7.126,0-12.903-5.777-12.903-12.903c0-0.012,0.001-0.024,0.001-0.036h-0.046v-34.456h-0.065
					c0.101,2.357-0.717,4.746-2.507,6.554c-1.725,1.742-3.997,2.604-6.269,2.596v22.383h0.006
					c0.043,9.24,5.043,17.402,12.696,22.437C324.213,325.254,327.778,322.478,331.935,322.606z"/>
			</g>
			<g>
				<path style="fill:#FFFFFF;" d="M309.278,322.188c-0.739,0-1.461-0.38-1.865-1.064c-1.92-3.252-3.987-9.363-3.987-15.092v-17.426
					c0-1.195,0.967-2.163,2.163-2.163s2.163,0.967,2.163,2.163v17.426c0,5.25,2.025,10.586,3.388,12.892
					c0.607,1.029,0.265,2.355-0.763,2.963C310.031,322.089,309.652,322.188,309.278,322.188z"/>
			</g>
			
				<rect x="343.209" y="327.458" transform="matrix(0.7071 -0.7071 0.7071 0.7071 -132.6622 342.5508)" style="opacity:0.74;fill:#F2292D;" width="7.911" height="7.911"/>
			
				<rect x="345.285" y="329.534" transform="matrix(0.7071 -0.7071 0.7071 0.7071 -132.7032 342.6496)" style="fill:#34C0C1;" width="3.955" height="3.955"/>
			
				<rect x="304.721" y="251.761" transform="matrix(0.7071 -0.7071 0.7071 0.7071 -91.2162 295.1096)" style="fill:#AF2F84;" width="11.805" height="11.805"/>
			
				<rect x="307.82" y="254.86" transform="matrix(0.7071 -0.7071 0.7071 0.7071 -91.2775 295.2547)" style="fill:#34C0C1;" width="5.903" height="5.903"/>
			<g>
				<path style="fill:#FFFFFF;" d="M305.589,264.314c-1.195,0-2.163-0.969-2.163-2.163v-9.794c0-1.195,0.967-2.163,2.163-2.163
					s2.163,0.969,2.163,2.163v9.794C307.752,263.345,306.785,264.314,305.589,264.314z"/>
			</g>
			<circle style="fill:#FFFFFF;" cx="310.495" cy="275.131" r="5.487"/>
			<circle style="fill:#FFFFFF;" cx="331.663" cy="331.678" r="5.487"/>
		</g>
	</g>
	<g>
		
			<linearGradient id="SVGID_00000077308383236766837070000003707318719716431550_" gradientUnits="userSpaceOnUse" x1="123.2649" y1="66.2401" x2="87.9315" y2="63.5735">
			<stop  offset="0" style="stop-color:#BD2667"/>
			<stop  offset="1" style="stop-color:#6B20B0"/>
		</linearGradient>
		<circle style="fill:url(#SVGID_00000077308383236766837070000003707318719716431550_);" cx="98" cy="64.333" r="20.667"/>
		<path style="opacity:0.22;fill:#525252;" d="M104.25,80.75c-11.414,0-20.667-9.253-20.667-20.667
			c0-5.736,2.339-10.923,6.113-14.667c-7.276,3.199-12.363,10.46-12.363,18.917C77.333,75.747,86.586,85,98,85
			c5.678,0,10.819-2.293,14.554-5.999C110.011,80.119,107.206,80.75,104.25,80.75z"/>
	</g>
	<g>
		
			<linearGradient id="SVGID_00000004509865835444891860000014965639657975956613_" gradientUnits="userSpaceOnUse" x1="417.7717" y1="207.2582" x2="399.6887" y2="205.8934" gradientTransform="matrix(0.1654 -0.9862 0.9862 0.1654 136.8126 578.1249)">
			<stop  offset="0" style="stop-color:#F0A930"/>
			<stop  offset="1" style="stop-color:#E34E29"/>
		</linearGradient>
		<path style="fill:url(#SVGID_00000004509865835444891860000014965639657975956613_);" d="M408.958,202.558
			c5.761,0.966,9.648,6.419,8.681,12.18c-0.966,5.761-6.419,9.648-12.18,8.682s-9.648-6.42-8.681-12.18
			C397.744,205.479,403.198,201.592,408.958,202.558z"/>
		<path style="opacity:0.22;fill:#858585;" d="M416.024,211.224c-0.966,5.761-6.419,9.648-12.18,8.681
			c-2.895-0.486-5.315-2.105-6.886-4.327c0.999,3.943,4.233,7.125,8.502,7.841c5.761,0.966,11.214-2.921,12.18-8.682
			c0.481-2.866-0.241-5.654-1.796-7.854C416.193,208.263,416.274,209.732,416.024,211.224z"/>
	</g>
	<g style="opacity:0.62;">
		
			<linearGradient id="SVGID_00000073686724395026433560000001797763601654956461_" gradientUnits="userSpaceOnUse" x1="136.6567" y1="114.8296" x2="126.6568" y2="52.8296">
			<stop  offset="0" style="stop-color:#BD2667"/>
			<stop  offset="1" style="stop-color:#06092D"/>
		</linearGradient>
		<path style="fill:url(#SVGID_00000073686724395026433560000001797763601654956461_);" d="M141.499,125.085
			c-0.356,0-0.718-0.067-1.067-0.21c-10.376-4.223-17.47-11.443-19.974-20.33c-2.101-7.457-0.756-15.688,3.51-21.478
			c3.293-4.469,9.973-10.365,16.855-12.747c1.481-0.513,3.094,0.273,3.606,1.752c0.512,1.479-0.272,3.094-1.751,3.606
			c-5.425,1.878-11.337,6.942-14.145,10.753c-3.252,4.413-4.255,10.765-2.617,16.577c1.428,5.069,5.477,12.067,16.653,16.616
			c1.45,0.59,2.147,2.244,1.557,3.694C143.678,124.419,142.618,125.085,141.499,125.085z"/>
	</g>
	<g>
		
			<linearGradient id="SVGID_00000125590893601198130610000004820495142138247045_" gradientUnits="userSpaceOnUse" x1="234.6984" y1="79.5553" x2="314.0318" y2="90.222">
			<stop  offset="0" style="stop-color:#BD2667"/>
			<stop  offset="1" style="stop-color:#06092D"/>
		</linearGradient>
		<path style="fill:url(#SVGID_00000125590893601198130610000004820495142138247045_);" d="M199.248,132.085
			c-1.498,0-2.749-1.173-2.828-2.687c-0.082-1.563,1.119-2.897,2.683-2.979c42.246-2.211,79.702-13.997,111.329-35.03
			c10.302-6.853,16.874-14.319,19.003-21.593c2.558-8.736,0.474-18.396-5.186-24.039c-6.222-6.205-19.396-10.626-29.083-7.324
			c-1.488,0.503-3.094-0.288-3.598-1.769c-0.506-1.481,0.286-3.092,1.768-3.598c12.066-4.114,27.52,1.3,34.917,8.676
			c7.084,7.064,9.746,18.979,6.623,29.646c-2.546,8.694-9.714,17.011-21.305,24.721c-32.485,21.604-70.897,33.706-114.172,35.97
			C199.348,132.083,199.297,132.085,199.248,132.085z"/>
	</g>
	<g>
		
			<linearGradient id="SVGID_00000067920508578776431870000000163395947329889205_" gradientUnits="userSpaceOnUse" x1="344.8787" y1="10.4538" x2="360.212" y2="35.1205">
			<stop  offset="0" style="stop-color:#BD2667"/>
			<stop  offset="1" style="stop-color:#06092D"/>
		</linearGradient>
		<path style="fill:url(#SVGID_00000067920508578776431870000000163395947329889205_);" d="M362.345,43.105
			c-1.344,0-2.537-0.959-2.786-2.328c-1.399-7.702-6.089-14.942-12.544-19.369c-1.291-0.886-1.62-2.65-0.734-3.941
			c0.886-1.291,2.648-1.621,3.941-0.735c7.79,5.343,13.227,13.737,14.915,23.031c0.279,1.541-0.742,3.016-2.282,3.296
			C362.683,43.091,362.513,43.105,362.345,43.105z"/>
	</g>
	<g style="opacity:0.66;">
		
			<linearGradient id="SVGID_00000079471601873546201430000011236359950501545111_" gradientUnits="userSpaceOnUse" x1="341.2498" y1="104.5696" x2="371.1966" y2="104.5696">
			<stop  offset="0" style="stop-color:#F46631"/>
			<stop  offset="1" style="stop-color:#06092D"/>
		</linearGradient>
		<path style="fill:url(#SVGID_00000079471601873546201430000011236359950501545111_);" d="M344.082,118.869
			c-1.29,0-2.456-0.887-2.759-2.198c-0.352-1.525,0.599-3.047,2.124-3.4c10.309-2.38,19.228-10.803,22.193-20.96
			c0.439-1.502,2.011-2.364,3.516-1.927c1.502,0.439,2.365,2.013,1.926,3.516c-3.577,12.252-13.924,22.024-26.359,24.896
			C344.508,118.845,344.294,118.869,344.082,118.869z"/>
	</g>
	<g style="opacity:0.66;">
		
			<linearGradient id="SVGID_00000165932067983321424810000010301145320504118662_" gradientUnits="userSpaceOnUse" x1="14.7192" y1="138.9293" x2="37.1225" y2="138.9293">
			<stop  offset="0" style="stop-color:#BD2667"/>
			<stop  offset="1" style="stop-color:#06092D"/>
		</linearGradient>
		<path style="fill:url(#SVGID_00000165932067983321424810000010301145320504118662_);" d="M34.285,173.634
			c-0.576,0-1.158-0.175-1.66-0.539c-2.763-2-5.225-4.38-7.318-7.075c-2.308-2.972-4.262-6.432-5.976-10.579
			c-6.462-15.642-6.116-34.169,0.926-49.559c0.651-1.424,2.332-2.051,3.757-1.398c1.424,0.651,2.05,2.333,1.398,3.757
			c-6.399,13.986-6.713,30.822-0.841,45.036c1.516,3.671,3.221,6.702,5.213,9.266c1.763,2.27,3.838,4.276,6.165,5.961
			c1.268,0.918,1.552,2.69,0.634,3.958C36.029,173.227,35.164,173.634,34.285,173.634z"/>
	</g>
	<g style="opacity:0.66;">
		
			<linearGradient id="SVGID_00000062178465445243861800000002037498690244020866_" gradientUnits="userSpaceOnUse" x1="315.4617" y1="378.5544" x2="204.7951" y2="386.5544">
			<stop  offset="0" style="stop-color:#F46631"/>
			<stop  offset="1" style="stop-color:#06092D"/>
		</linearGradient>
		<path style="fill:url(#SVGID_00000062178465445243861800000002037498690244020866_);" d="M260.58,397.747
			c-4.585,0-9.342-0.19-14.781-0.408l-0.162-0.007c-13.966-0.559-25.647-2.835-35.711-6.959c-5.405-2.215-14.83-7.117-17.227-15.059
			c-0.452-1.499,0.396-3.081,1.895-3.533c1.501-0.45,3.081,0.396,3.533,1.895c1.237,4.099,6.451,8.379,13.949,11.452
			c9.442,3.869,20.494,6.009,33.788,6.541l0.162,0.006c14.809,0.594,23.748,0.95,37.905-1.951
			c11.963-2.451,21.653-7.91,29.439-12.296c2.186-1.232,4.253-2.395,6.194-3.395c1.391-0.717,3.101-0.171,3.817,1.222
			c0.718,1.392,0.17,3.101-1.222,3.817c-1.847,0.952-3.868,2.091-6.008,3.296c-8.131,4.58-18.25,10.281-31.083,12.911
			C275.719,397.193,268.399,397.747,260.58,397.747z"/>
	</g>
	<g style="opacity:0.59;">
		<g>
			<path style="fill:#34C0C1;" d="M30.922,37.085h-0.43c-1.515,0-2.744-1.229-2.744-2.744c0-1.516,1.229-2.744,2.744-2.744h0.43
				c1.516,0,2.744,1.229,2.744,2.744C33.667,35.857,32.438,37.085,30.922,37.085z"/>
		</g>
	</g>
	<g>
		<g>
			<path style="fill:#34C0C1;" d="M406.589,113.078h-0.43c-1.515,0-2.744-1.229-2.744-2.744c0-1.515,1.229-2.744,2.744-2.744h0.43
				c1.516,0,2.744,1.229,2.744,2.744C409.333,111.849,408.105,113.078,406.589,113.078z"/>
		</g>
	</g>
	<g>
		<g>
			<path style="fill:#8C3774;" d="M425.012,65.988h-0.364c-1.282,0-2.321-1.039-2.321-2.321c0-1.282,1.039-2.321,2.321-2.321h0.364
				c1.282,0,2.321,1.039,2.321,2.321C427.333,64.948,426.294,65.988,425.012,65.988z"/>
		</g>
	</g>
	<g>
		<g>
			<path style="fill:#C64094;" d="M50.646,116.739h-0.418c-1.471,0-2.664-1.193-2.664-2.664s1.193-2.664,2.664-2.664h0.418
				c1.471,0,2.664,1.193,2.664,2.664S52.117,116.739,50.646,116.739z"/>
		</g>
	</g>
	<g>
		<g>
			<path style="fill:#34C0C1;" d="M119.137,105.129h-0.303c-1.069,0-1.936-0.867-1.936-1.936c0-1.069,0.867-1.936,1.936-1.936h0.303
				c1.069,0,1.936,0.867,1.936,1.936C121.073,104.262,120.206,105.129,119.137,105.129z"/>
		</g>
	</g>
	<g>
		
			<linearGradient id="SVGID_00000116201403513560937970000002873025191082456226_" gradientUnits="userSpaceOnUse" x1="130.0812" y1="48.3334" x2="138.5851" y2="48.3334">
			<stop  offset="0" style="stop-color:#F0A930"/>
			<stop  offset="1" style="stop-color:#E34E29"/>
		</linearGradient>
		<path style="fill:url(#SVGID_00000116201403513560937970000002873025191082456226_);" d="M134.333,52.919
			c-2.348,0-4.252-1.904-4.252-4.252V48c0-2.348,1.904-4.252,4.252-4.252c2.348,0,4.252,1.904,4.252,4.252v0.667
			C138.585,51.015,136.681,52.919,134.333,52.919z"/>
	</g>
	<g>
		<g>
			<path style="fill:#FF7B54;" d="M297.314,397.605c-2.199,0-3.98-1.782-3.98-3.98V393c0-2.199,1.782-3.98,3.98-3.98
				c2.199,0,3.98,1.782,3.98,3.98v0.624C301.294,395.823,299.512,397.605,297.314,397.605z"/>
		</g>
	</g>
	<g>
		<g>
			<path style="fill:#C64094;" d="M124.104,412.705c-1.985,0-3.593-1.608-3.593-3.593v-0.564c0-1.985,1.608-3.593,3.593-3.593
				c1.985,0,3.593,1.609,3.593,3.593v0.564C127.697,411.096,126.088,412.705,124.104,412.705z"/>
		</g>
	</g>
	<g>
		
			<linearGradient id="SVGID_00000085246263686616740600000012838936231298345867_" gradientUnits="userSpaceOnUse" x1="43.8437" y1="392.0517" x2="50" y2="392.0517">
			<stop  offset="0" style="stop-color:#2E87A1"/>
			<stop  offset="1" style="stop-color:#289433"/>
		</linearGradient>
		<path style="fill:url(#SVGID_00000085246263686616740600000012838936231298345867_);" d="M46.922,395.371
			c-1.7,0-3.078-1.378-3.078-3.078v-0.483c0-1.7,1.378-3.078,3.078-3.078c1.7,0,3.078,1.378,3.078,3.078v0.483
			C50,393.993,48.622,395.371,46.922,395.371z"/>
	</g>
	<g>
		<g>
			<path style="fill:#FFA961;" d="M243.255,415.933c-1.332,0-2.411-1.079-2.411-2.411v-0.378c0-1.332,1.079-2.411,2.411-2.411
				c1.332,0,2.411,1.079,2.411,2.411v0.378C245.667,414.854,244.587,415.933,243.255,415.933z"/>
		</g>
	</g>
	<g>
		
			<linearGradient id="SVGID_00000096061777985432796730000003031005055821471876_" gradientUnits="userSpaceOnUse" x1="420.0814" y1="395" x2="424" y2="395">
			<stop  offset="0" style="stop-color:#F0A930"/>
			<stop  offset="1" style="stop-color:#E34E29"/>
		</linearGradient>
		<path style="fill:url(#SVGID_00000096061777985432796730000003031005055821471876_);" d="M422.183,396.817h-0.285
			c-1.004,0-1.817-0.813-1.817-1.817s0.813-1.817,1.817-1.817h0.285c1.003,0,1.817,0.813,1.817,1.817
			S423.187,396.817,422.183,396.817z"/>
	</g>
	<g>
		<g>
			<path style="fill:#34C0C1;" d="M371.121,421.212h-0.347c-1.222,0-2.212-0.99-2.212-2.212s0.99-2.212,2.212-2.212h0.347
				c1.222,0,2.212,0.99,2.212,2.212S372.343,421.212,371.121,421.212z"/>
		</g>
	</g>
	<g>
		<path style="fill:#C64094;" d="M398.68,235.333h-0.347c-1.222,0-2.212-0.99-2.212-2.212c0-1.222,0.99-2.212,2.212-2.212h0.347
			c1.222,0,2.212,0.99,2.212,2.212C400.893,234.343,399.902,235.333,398.68,235.333z"/>
	</g>
	<g>
		<g>
			<path style="fill:#34C0C1;" d="M127.479,242.513h-0.573c-2.018,0-3.653-1.635-3.653-3.653s1.635-3.653,3.653-3.653h0.573
				c2.018,0,3.653,1.635,3.653,3.653S129.497,242.513,127.479,242.513z"/>
		</g>
	</g>
	<g style="opacity:0.66;">
		
			<linearGradient id="SVGID_00000069387880932184694620000013385220519039222432_" gradientUnits="userSpaceOnUse" x1="191.6145" y1="237.0047" x2="260.2526" y2="237.0047">
			<stop  offset="0" style="stop-color:#F46631"/>
			<stop  offset="1" style="stop-color:#06092D"/>
		</linearGradient>
		<path style="fill:url(#SVGID_00000069387880932184694620000013385220519039222432_);" d="M245.063,252.637
			c-8.21,0-18.398-1.165-27.365-4.678c-6.059-2.373-12.447-7.297-16.739-11.01c-9.372-8.105-9.355-10.064-9.344-11.36
			c0.02-2.336,1.92-4.216,4.251-4.216c0.012,0,0.024,0,0.037,0c1.721,0.015,3.195,1.05,3.852,2.526
			c1.905,2.514,12.945,12.968,21.046,16.142c11.874,4.652,27.24,4.726,34.359,3.291c2.302-0.465,4.545,1.026,5.008,3.328
			c0.464,2.302-1.026,4.544-3.328,5.008C254.034,252.233,249.891,252.637,245.063,252.637z"/>
	</g>
	<g style="opacity:0.7;">
		<path style="fill:#FFFFFF;" d="M234.671,28.919c-0.323,0-0.65-0.037-0.979-0.114c-6.386-1.503-10.671-2.319-18.024-0.217
			c-2.257,0.646-4.611-0.662-5.256-2.92c-0.645-2.258,0.662-4.611,2.92-5.256c9.147-2.614,15.018-1.601,22.31,0.116
			c2.285,0.538,3.702,2.827,3.164,5.113C238.345,27.599,236.599,28.919,234.671,28.919z"/>
	</g>
	<g style="opacity:0.7;">
		<path style="fill:#FFFFFF;" d="M166.415,114.696c-1.646,0-3.212-0.961-3.906-2.568c-5.528-12.813-5.236-31.543,0.78-50.105
			c4.766-14.704,13.101-24.726,27.872-33.51c2.016-1.202,4.627-0.538,5.828,1.481c1.201,2.018,0.538,4.627-1.481,5.828
			c-13.011,7.739-20.001,16.089-24.128,28.824c-5.398,16.653-5.795,33.144-1.062,44.114c0.93,2.156-0.063,4.658-2.22,5.589
			C167.548,114.584,166.977,114.696,166.415,114.696z"/>
	</g>
	<g>
		
			<rect x="39.676" y="43.202" transform="matrix(0.7071 -0.7071 0.7071 0.7071 -20.5249 44.5653)" style="fill:#34C0C1;" width="7.712" height="7.712"/>
		
			<rect x="50.573" y="43.202" transform="matrix(0.7071 -0.7071 0.7071 0.7071 -17.3333 52.27)" style="fill:#8C3774;" width="7.712" height="7.712"/>
		
			<rect x="45.144" y="48.644" transform="matrix(0.7071 -0.7071 0.7071 0.7071 -22.7713 50.0251)" style="fill:#FF7B54;" width="7.712" height="7.712"/>
	</g>
	<g>
		
			<rect x="343.568" y="60.635" transform="matrix(-1 -1.224647e-16 1.224647e-16 -1 693 127.1352)" style="fill:#34C0C1;" width="5.865" height="5.865"/>
		
			<rect x="337.708" y="54.775" transform="matrix(-1 -1.224647e-16 1.224647e-16 -1 681.2801 115.4153)" style="fill:#8C3774;" width="5.865" height="5.865"/>
		
			<rect x="343.568" y="54.768" transform="matrix(-1 -1.224647e-16 1.224647e-16 -1 693 115.4012)" style="fill:#FF7B54;" width="5.865" height="5.865"/>
	</g>
	<g>
		
			<rect x="339.969" y="64.568" transform="matrix(-1 -1.224647e-16 1.224647e-16 -1 685.8019 135)" style="fill:#34C0C1;" width="5.865" height="5.865"/>
		
			<rect x="334.109" y="58.708" transform="matrix(-1 -1.224647e-16 1.224647e-16 -1 674.082 123.28)" style="fill:#8C3774;" width="5.865" height="5.865"/>
		
			<rect x="339.969" y="58.701" transform="matrix(-1 -1.224647e-16 1.224647e-16 -1 685.8019 123.266)" style="fill:#FF7B54;" width="5.865" height="5.865"/>
	</g>
	<g>
		<defs>
			<rect id="SVGID_00000177446019750603735460000003563432293030378887_" y="305" width="218.667" height="129.333"/>
		</defs>
		<clipPath id="SVGID_00000020378309731514321510000012418580650550827425_">
			<use xlink:href="#SVGID_00000177446019750603735460000003563432293030378887_"  style="overflow:visible;"/>
		</clipPath>
		<g style="opacity:0.66;clip-path:url(#SVGID_00000020378309731514321510000012418580650550827425_);">
			
				<linearGradient id="SVGID_00000094583696983608441570000000784460177721216686_" gradientUnits="userSpaceOnUse" x1="184.5261" y1="357.279" x2="14.5262" y2="416.6123">
				<stop  offset="0" style="stop-color:#BD2667"/>
				<stop  offset="1" style="stop-color:#06092D"/>
			</linearGradient>
			<path style="fill:url(#SVGID_00000094583696983608441570000000784460177721216686_);" d="M-28.743,461.334
				c-1.108,0-2.215-0.431-3.048-1.287c-6.816-7.007-7.396-18.792-1.551-31.524c5.021-10.938,12.528-20.829,21.71-28.605
				c7.474-6.33,15.114-10.361,22.71-11.982c5.042-1.076,10.471-1.223,16.601-0.447c11.306,1.431,21.859,5.615,32.065,9.661
				c5.828,2.311,11.855,4.701,17.843,6.487c7.015,2.092,30.934,7.801,44.244-6.553c4.678-5.044,7.19-11.75,9.851-18.851
				c1.327-3.541,2.699-7.203,4.379-10.716c5.647-11.804,10.469-18.626,22.601-25.471c1.952-1.102,22.197-9.737,29.357-4.473
				c1.892,1.391,2.299,4.052,0.908,5.943c-1.36,1.851-3.934,2.28-5.817,0.999c-2.82-1.05-15.613,2.309-20.27,4.936
				c-10.273,5.796-14.047,11.154-19.108,21.734c-1.519,3.176-2.766,6.505-4.087,10.029c-2.832,7.56-5.761,15.377-11.579,21.65
				c-11.234,12.114-31.013,15.45-52.91,8.918c-6.345-1.893-12.548-4.352-18.546-6.73c-10.162-4.028-19.759-7.834-29.998-9.129
				c-5.165-0.653-9.667-0.546-13.76,0.326c-6.208,1.324-12.597,4.74-18.988,10.153c-8.238,6.978-14.973,15.853-19.478,25.665
				c-3.337,7.269-5.111,16.878-0.082,22.047c1.637,1.684,1.6,4.375-0.083,6.013C-26.605,460.934-27.675,461.334-28.743,461.334z
				 M182.982,344.426c0.001,0.001,0.002,0.002,0.003,0.003C182.984,344.428,182.983,344.427,182.982,344.426z"/>
		</g>
	</g>
	<g>
		<defs>
			<rect id="SVGID_00000110468144319098733290000018326419605091799215_" x="374.333" y="3" width="75.667" height="128"/>
		</defs>
		<clipPath id="SVGID_00000110438000104323187860000011564612591775662211_">
			<use xlink:href="#SVGID_00000110468144319098733290000018326419605091799215_"  style="overflow:visible;"/>
		</clipPath>
		<g style="opacity:0.61;clip-path:url(#SVGID_00000110438000104323187860000011564612591775662211_);">
			
				<linearGradient id="SVGID_00000008832050098521774800000001491708797588166785_" gradientUnits="userSpaceOnUse" x1="391.826" y1="114.4727" x2="423.826" y2="20.4728">
				<stop  offset="0" style="stop-color:#BD2667"/>
				<stop  offset="1" style="stop-color:#06092D"/>
			</linearGradient>
			<path style="fill:url(#SVGID_00000008832050098521774800000001491708797588166785_);" d="M397.502,122.535
				c-0.797,0-1.603-0.039-2.418-0.119c-2.338-0.229-4.046-2.31-3.816-4.647c0.23-2.336,2.311-4.05,4.647-3.816
				c10.063,0.99,18.835-8.02,21.533-17.295c3.243-11.141,0.228-23.34-2.76-32.723c-2.266-7.114-5.005-14.159-8.141-20.939
				c-0.393-0.848-0.792-1.695-1.192-2.544c-2.244-4.757-4.565-9.677-5.788-15.102c-2.99-13.268,1.508-27.831,11.458-37.101
				c9.95-9.271,24.792-12.729,37.818-8.808c2.249,0.677,3.522,3.048,2.846,5.297c-0.677,2.249-3.052,3.521-5.297,2.846
				c-10.183-3.065-21.79-0.361-29.57,6.887c-7.78,7.249-11.297,18.636-8.959,29.01c1.017,4.513,3.041,8.802,5.184,13.344
				c0.409,0.867,0.817,1.734,1.22,2.602c3.283,7.101,6.152,14.479,8.525,21.929c3.354,10.533,6.706,24.333,2.822,37.679
				C422.191,110.79,411.339,122.535,397.502,122.535z"/>
		</g>
	</g>
	<g>
		<g>
			
				<rect x="207.55" y="401.634" transform="matrix(-0.7071 -0.7071 0.7071 -0.7071 72.6295 837.9897)" style="fill:#34C0C1;" width="4.637" height="4.637"/>
			
				<rect x="207.55" y="395.082" transform="matrix(-0.7071 -0.7071 0.7071 -0.7071 77.2626 826.8044)" style="fill:#8C3774;" width="4.637" height="4.637"/>
			
				<rect x="210.83" y="398.354" transform="matrix(-0.7071 -0.7071 0.7071 -0.7071 80.5416 834.7077)" style="fill:#FF7B54;" width="4.637" height="4.637"/>
		</g>
		<g>
			
				<rect x="201.203" y="407.981" transform="matrix(-0.7071 -0.7071 0.7071 -0.7071 57.3076 844.3362)" style="fill:#34C0C1;" width="4.637" height="4.637"/>
			
				<rect x="201.203" y="401.429" transform="matrix(-0.7071 -0.7071 0.7071 -0.7071 61.9341 833.1489)" style="fill:#8C3774;" width="4.637" height="4.637"/>
			
				<rect x="204.483" y="404.701" transform="matrix(-0.7071 -0.7071 0.7071 -0.7071 65.2262 841.0562)" style="fill:#FF7B54;" width="4.637" height="4.637"/>
		</g>
		<g>
			
				<rect x="207.665" y="408.076" transform="matrix(0.7071 0.7071 -0.7071 0.7071 351.7025 -28.2763)" style="fill:#34C0C1;" width="4.637" height="4.637"/>
			
				<rect x="214.217" y="408.076" transform="matrix(0.7071 0.7071 -0.7071 0.7071 353.6145 -32.9116)" style="fill:#8C3774;" width="4.637" height="4.637"/>
			
				<rect x="210.945" y="404.796" transform="matrix(0.7071 0.7071 -0.7071 0.7071 350.3372 -31.5585)" style="fill:#FF7B54;" width="4.637" height="4.637"/>
		</g>
		<g>
			
				<rect x="201.318" y="414.423" transform="matrix(0.7071 0.7071 -0.7071 0.7071 354.3243 -21.932)" style="fill:#34C0C1;" width="4.637" height="4.637"/>
			
				<rect x="207.87" y="414.423" transform="matrix(0.7071 0.7071 -0.7071 0.7071 356.2502 -26.5628)" style="fill:#8C3774;" width="4.637" height="4.637"/>
			
				<rect x="204.598" y="411.143" transform="matrix(0.7071 0.7071 -0.7071 0.7071 352.9657 -25.212)" style="fill:#FF7B54;" width="4.637" height="4.637"/>
		</g>
	</g>
	<g>
		
			<radialGradient id="SVGID_00000087378685603583799890000018193052394097492400_" cx="175.1573" cy="379.9008" r="20.6103" gradientUnits="userSpaceOnUse">
			<stop  offset="0" style="stop-color:#278369"/>
			<stop  offset="0.9892" style="stop-color:#275469"/>
		</radialGradient>
		<path style="fill:url(#SVGID_00000087378685603583799890000018193052394097492400_);" d="M187.094,363.101
			c9.278,6.592,11.456,19.458,4.864,28.736c-6.592,9.279-19.458,11.456-28.736,4.864c-9.278-6.592-11.456-19.458-4.864-28.736
			C164.949,358.686,177.815,356.509,187.094,363.101z"/>
		<path style="opacity:0.22;fill:#363636;" d="M192.112,384.302c-6.592,9.278-19.458,11.456-28.736,4.864
			c-4.663-3.313-7.529-8.21-8.393-13.44c-1.602,7.762,1.362,16.091,8.238,20.976c9.278,6.592,22.144,4.415,28.736-4.864
			c3.28-4.616,4.385-10.119,3.529-15.296C194.927,379.254,193.82,381.899,192.112,384.302z"/>
	</g>
</g>
</svg>
